<?xml version="1.0" standalone="no"?>
<!DOCTYPE svg PUBLIC "-//W3C//DTD SVG 20010904//EN"
 "http://www.w3.org/TR/2001/REC-SVG-20010904/DTD/svg10.dtd">
<svg version="1.0" xmlns="http://www.w3.org/2000/svg"
 width="552.000000pt" height="91.000000pt" viewBox="0 0 552.000000 91.000000"
 preserveAspectRatio="xMidYMid meet">
<metadata>
Created by potrace 1.16, written by Peter Selinger 2001-2019
</metadata>
<g transform="translate(0.000000,91.000000) scale(0.100000,-0.100000)"
fill="#000000" stroke="none">
<path d="M335 791 c-22 -10 -53 -31 -69 -46 -25 -23 -32 -25 -53 -16 -13 6
-39 11 -58 11 -34 0 -35 -1 -35 -40 0 -46 27 -80 62 -80 13 0 33 -3 45 -6 l22
-6 -35 -99 -36 -99 24 -42 c19 -35 29 -44 55 -46 36 -4 41 -16 47 -127 2 -33
4 -68 5 -77 0 -10 5 -18 10 -18 16 0 19 140 3 181 -8 21 -12 45 -9 53 7 19 48
21 65 4 6 -6 15 -8 19 -4 13 12 -39 48 -60 42 -15 -4 -17 -2 -8 7 21 21 11 28
-19 12 -16 -8 -43 -15 -60 -15 -27 0 -30 3 -30 33 0 17 15 75 33 127 l33 95
62 3 c34 2 62 6 62 10 0 4 -24 13 -52 20 -48 11 -55 10 -80 -8 -35 -26 -82
-26 -108 0 -26 26 -27 64 -2 56 63 -19 69 -18 116 18 48 36 100 56 149 56 15
0 27 5 27 10 0 17 -82 11 -125 -9z"/>
<path d="M415 624 c-17 -27 -13 -46 6 -27 6 6 18 9 25 6 10 -4 14 3 14 21 0
34 -23 34 -45 0z"/>
<path d="M517 575 c-6 -13 12 -15 137 -15 130 0 145 -2 161 -20 10 -11 22 -20
27 -20 5 0 -7 15 -25 34 l-34 34 -130 1 c-109 2 -131 -1 -136 -14z"/>
<path d="M1510 560 c0 -18 7 -20 64 -20 80 0 96 -6 96 -35 0 -27 -17 -35 -74
-35 -62 0 -78 -17 -84 -84 l-4 -56 30 0 c30 0 31 2 34 48 l3 47 56 5 c72 6 89
21 89 75 0 64 -19 75 -123 75 -80 0 -87 -2 -87 -20z"/>
<path d="M1830 560 c0 -18 7 -20 64 -20 80 0 96 -6 96 -35 0 -27 -17 -35 -74
-35 -62 0 -78 -17 -84 -84 l-4 -56 31 0 c28 0 31 3 31 30 0 17 2 30 4 30 2 0
34 -13 71 -30 81 -36 85 -37 85 -6 0 20 -10 28 -62 49 -60 25 -61 26 -28 27
55 0 80 23 80 74 0 65 -18 76 -123 76 -80 0 -87 -2 -87 -20z"/>
<path d="M2197 569 c-43 -25 -59 -120 -33 -184 19 -44 42 -55 116 -55 55 0 65
3 91 29 26 27 29 36 29 96 0 60 -3 69 -29 96 -26 26 -36 29 -93 29 -35 0 -71
-5 -81 -11z m133 -49 c14 -14 20 -33 20 -65 0 -55 -25 -85 -72 -85 -39 0 -51
7 -67 37 -20 40 -9 104 23 125 22 15 76 8 96 -12z"/>
<path d="M2710 501 c0 -138 27 -171 140 -171 53 0 60 2 60 20 0 17 -7 20 -48
20 -27 0 -57 7 -70 16 -20 14 -22 23 -22 105 l0 89 -30 0 -30 0 0 -79z"/>
<path d="M3020 455 l0 -125 30 0 30 0 0 125 0 125 -30 0 -30 0 0 -125z"/>
<path d="M3222 468 c22 -62 45 -119 50 -125 17 -21 76 -16 88 7 11 21 80 215
80 225 0 4 -12 5 -27 3 -25 -3 -30 -12 -62 -101 -19 -54 -37 -94 -41 -90 -4 4
-13 26 -20 48 -39 125 -50 145 -79 145 l-28 0 39 -112z"/>
<path d="M3550 560 c-22 -22 -27 -79 -8 -98 9 -9 9 -15 0 -24 -19 -19 -14 -66
8 -88 17 -17 33 -20 105 -20 78 0 85 2 85 20 0 18 -7 20 -69 20 -49 0 -72 4
-81 15 -24 29 5 45 81 45 62 0 69 2 69 20 0 17 -8 19 -71 22 -54 2 -75 7 -82
20 -20 32 8 48 84 48 62 0 69 2 69 20 0 18 -7 20 -85 20 -72 0 -88 -3 -105
-20z"/>
<path d="M3870 560 c-24 -24 -27 -77 -6 -106 11 -14 30 -20 83 -24 65 -5 68
-6 68 -30 0 -24 -2 -25 -77 -28 -70 -3 -78 -5 -78 -22 0 -18 7 -20 88 -20 107
0 127 10 127 69 0 22 -6 46 -13 53 -7 7 -43 15 -79 18 -73 6 -98 24 -74 54 10
12 32 16 82 16 62 0 69 2 69 20 0 18 -7 20 -85 20 -72 0 -88 -3 -105 -20z"/>
<path d="M4190 560 c0 -16 7 -20 30 -20 l30 0 0 -105 0 -105 25 0 25 0 0 105
0 105 30 0 c23 0 30 4 30 20 0 18 -7 20 -85 20 -78 0 -85 -2 -85 -20z"/>
<path d="M4497 569 c-43 -25 -59 -120 -33 -184 19 -44 42 -55 116 -55 55 0 65
3 91 29 26 27 29 36 29 96 0 60 -3 69 -29 96 -26 26 -36 29 -93 29 -35 0 -71
-5 -81 -11z m133 -49 c14 -14 20 -33 20 -65 0 -55 -25 -85 -72 -85 -39 0 -51
7 -67 37 -20 40 -9 104 23 125 22 15 76 8 96 -12z"/>
<path d="M4857 569 c-43 -25 -59 -120 -33 -184 19 -45 42 -55 125 -55 64 0 71
2 71 20 0 18 -7 20 -57 20 -64 0 -75 5 -92 37 -20 40 -9 104 23 125 6 4 37 8
69 8 50 0 57 2 57 20 0 18 -7 20 -72 20 -40 0 -81 -5 -91 -11z"/>
<path d="M5140 455 l0 -125 30 0 c28 0 30 3 30 34 l0 35 74 -35 c41 -19 77
-34 80 -34 3 0 6 11 6 25 0 23 -11 31 -81 63 l-81 37 81 37 c72 32 81 40 81
63 0 31 -11 29 -102 -16 l-58 -29 0 35 c0 32 -2 35 -30 35 l-30 0 0 -125z"/>
<path d="M480 490 c0 -6 43 -10 108 -10 107 0 109 0 137 -30 30 -31 62 -37
115 -20 21 6 17 8 -27 15 -35 5 -59 15 -74 31 -21 23 -29 24 -141 24 -72 0
-118 -4 -118 -10z"/>
<path d="M250 440 c-19 -14 -22 -22 -14 -30 15 -15 54 4 54 25 0 23 -14 25
-40 5z"/>
<path d="M670 375 c-8 -10 -38 -15 -108 -17 -65 -2 -97 -7 -100 -15 -6 -20
201 -18 218 2 10 12 36 15 114 15 101 0 103 -1 131 -30 l29 -30 156 0 c103 0
160 -4 167 -11 17 -17 43 -3 43 21 0 23 -26 38 -41 23 -7 -7 -69 -9 -167 -6
-156 5 -157 5 -187 34 -30 28 -34 29 -137 29 -80 0 -108 -3 -118 -15z"/>
<path d="M682 295 c-25 -21 -40 -25 -117 -27 -60 -2 -90 -7 -93 -15 -3 -10 21
-13 96 -13 100 0 100 0 126 31 42 50 35 64 -12 24z"/>
<path d="M870 195 l-24 -26 -183 3 c-119 2 -182 -1 -180 -7 2 -6 74 -11 183
-12 l179 -2 28 35 c34 40 31 45 -3 9z"/>
</g>
</svg>
